HIERARCHY
ROOT reference
{
  OFFSET 0 0 0
  CHANNELS 6 Xposition Yposition Zposition Zrotation Xrotation Yrotation
  JOINT Hips
  {
    OFFSET 10.9747 91.4289 98.8503
    CHANNELS 6 Xposition Yposition Zposition Zrotation Xrotation Yrotation
    JOINT Spine
    {
      OFFSET 0 7.86299 0
      CHANNELS 6 Xposition Yposition Zposition Zrotation Xrotation Yrotation
      JOINT Spine1
      {
        OFFSET 0 22.6654 0
        CHANNELS 6 Xposition Yposition Zposition Zrotation Xrotation Yrotation
        JOINT Neck
        {
          OFFSET 0 22.5723 2.05203
          CHANNELS 6 Xposition Yposition Zposition Zrotation Xrotation Yrotation
          JOINT Head
          {
            OFFSET 0 13.4246 -1.9178
            CHANNELS 6 Xposition Yposition Zposition Zrotation Xrotation Yrotation
            End Site
            {
              OFFSET 0 23.9725 0
            }
          }
        }
        JOINT LeftShoulder
        {
          OFFSET 3.7941 20.1358 -0.319195
          CHANNELS 6 Xposition Yposition Zposition Zrotation Xrotation Yrotation
          JOINT LeftArm
          {
            OFFSET 12.7665 0 0
            CHANNELS 6 Xposition Yposition Zposition Zrotation Xrotation Yrotation
            JOINT LeftForeArm
            {
              OFFSET 28.396 0 0
              CHANNELS 6 Xposition Yposition Zposition Zrotation Xrotation Yrotation
              JOINT LeftHand
              {
                OFFSET 28.7929 0 0
                CHANNELS 6 Xposition Yposition Zposition Zrotation Xrotation Yrotation
                End Site
                {
                  OFFSET 14.3835 0 0
                }
              }
            }
          }
        }
        JOINT RightShoulder
        {
          OFFSET -3.85764 20.1358 -0.319195
          CHANNELS 6 Xposition Yposition Zposition Zrotation Xrotation Yrotation
          JOINT RightArm
          {
            OFFSET -12.7665 0 0
            CHANNELS 6 Xposition Yposition Zposition Zrotation Xrotation Yrotation
            JOINT RightForeArm
            {
              OFFSET -28.396 0 0
              CHANNELS 6 Xposition Yposition Zposition Zrotation Xrotation Yrotation
              JOINT RightHand
              {
                OFFSET -28.7929 0 0
                CHANNELS 6 Xposition Yposition Zposition Zrotation Xrotation Yrotation
                End Site
                {
                  OFFSET -14.3835 0 0
                }
              }
            }
          }
        }
      }
    }
    JOINT LeftUpLeg
    {
      OFFSET 9.58901 0 0
      CHANNELS 6 Xposition Yposition Zposition Zrotation Xrotation Yrotation
      JOINT LeftLeg
      {
        OFFSET 0 -41.7092 0
        CHANNELS 6 Xposition Yposition Zposition Zrotation Xrotation Yrotation
        JOINT LeftFoot
        {
          OFFSET 0 -41.5308 0
          CHANNELS 6 Xposition Yposition Zposition Zrotation Xrotation Yrotation
          JOINT LeftToeBase
          {
            OFFSET 0 -6.23286 14.3835
            CHANNELS 6 Xposition Yposition Zposition Zrotation Xrotation Yrotation
            End Site
            {
              OFFSET 0 0 3.8356
            }
          }
        }
      }
    }
    JOINT RightUpLeg
    {
      OFFSET -9.58901 0 0
      CHANNELS 6 Xposition Yposition Zposition Zrotation Xrotation Yrotation
      JOINT RightLeg
      {
        OFFSET 0 -41.7092 0
        CHANNELS 6 Xposition Yposition Zposition Zrotation Xrotation Yrotation
        JOINT RightFoot
        {
          OFFSET 0 -41.5308 0
          CHANNELS 6 Xposition Yposition Zposition Zrotation Xrotation Yrotation
          JOINT RightToeBase
          {
            OFFSET 0 -6.23286 14.3835
            CHANNELS 6 Xposition Yposition Zposition Zrotation Xrotation Yrotation
            End Site
            {
              OFFSET 0 0 3.8356
            }
          }
        }
      }
    }
  }
}
MOTION
Frames:	9
Frame Time:	0.004
0 0 0 0 0 -0 -24.0134 86.2519 -189.025 0.788876 -1.40601 8.91146 3.55271e-015 7.86299 0 0.59948 -8.54188 -0.766708 3.55271e-015 22.6654 0 -0.660197 2.94791 -0.796538 3.55271e-015 22.5723 2.05203 -1.5229 20.5179 -1.02948 3.55271e-015 13.4246 -1.9178 3.29163 0.122973 -0.666735 3.7941 20.1358 -0.319195 8.58124 4.12355 1.32589 12.7665 -2.84217e-014 0 -11.0976 2.04029 -6.90651 28.396 2.84217e-014 2.84217e-014 0.444388 4.07302 -0.675394 28.7929 0 0 4.79638 4.05456 -0.487196 -3.85764 20.1358 -0.319195 -7.37643 6.79708 7.03499 -12.7665 0 0 9.47438 0.845084 1.07785 -28.396 2.84217e-014 0 -1.20107 -1.08076 1.59826 -28.7929 -2.84217e-014 0 -6.18962 -1.19089 2.34698 9.58901 -1.42109e-014 0 3.18444 5.99158 0.64631 -3.55271e-015 -41.7092 0 -2.89588 0.0761614 -3.53514 1.77636e-015 -41.5308 0 0.364332 -6.44102 24.2479 0 -6.23286 14.3835 -1.98785e-016 1.98785e-016 -6.36111e-015 -9.58901 0 2.84217e-014 -3.42347 2.77109 -1.63431 -7.10543e-015 -41.7092 0 3.32369 4.92716 -1.22432 0 -41.5308 -2.84217e-014 -0.861157 -9.08952 -15.5106 1.42109e-014 -6.23286 14.3835 1.98785e-016 7.95139e-016 -0 
0 0 0 0 0 -0 -24.0134 86.2519 -189.025 0.788876 -1.40601 8.91146 3.55271e-015 7.86299 0 0.59948 -8.54188 -0.766708 3.55271e-015 22.6654 0 -0.660297 2.94073 -0.796533 0 22.5723 2.05203 -1.51908 20.5178 -1.03848 0 13.4246 -1.9178 3.30896 0.12356 -0.673511 3.7941 20.1358 -0.319195 8.58089 4.12355 1.33074 12.7665 2.84217e-014 0 -11.089 2.0232 -6.93669 28.396 2.84217e-014 0 0.444731 4.07302 -0.680236 28.7929 -2.84217e-014 0 4.84192 4.05455 -0.500865 -3.85764 20.1358 -0.319195 -7.37643 6.79708 7.03499 -12.7665 0 2.84217e-014 9.4741 0.859882 1.07786 -28.396 0 -2.84217e-014 -1.20071 -1.09364 1.59827 -28.7929 2.84217e-014 0 -6.16412 -1.2041 2.36298 9.58901 -1.42109e-014 0 3.18444 5.99158 0.64631 -3.55271e-015 -41.7092 0 -2.89588 0.0761615 -3.53316 1.77636e-015 -41.5308 0 0.341461 -6.44659 24.261 0 -6.23286 14.3835 -1.98785e-016 0 -6.36111e-015 -9.58901 0 2.84217e-014 -3.42347 2.77109 -1.63431 -7.10543e-015 -41.7092 0 3.32472 4.92751 -1.23624 -3.55271e-015 -41.5308 0 -0.864239 -9.08905 -15.5216 -1.42109e-014 -6.23286 14.3835 9.93923e-017 0 3.18055e-015 
0 0 0 0 0 -0 -24.0134 86.2519 -189.025 0.788876 -1.40601 8.91146 3.55271e-015 7.86299 0 0.599493 -8.54089 -0.766706 -3.55271e-015 22.6654 0 -0.660364 2.93592 -0.796529 0 22.5723 2.05203 -1.49052 20.5104 -1.04827 3.55271e-015 13.4246 -1.9178 3.29218 0.140627 -0.685306 3.7941 20.1358 -0.319195 8.58214 4.12357 1.31341 12.7665 -2.84217e-014 0 -11.1018 2.02374 -6.931 28.396 0 0 0.445861 4.07301 -0.696141 28.7929 2.84217e-014 -2.84217e-014 4.84021 4.05455 -0.502888 -3.85764 20.1358 -0.319195 -7.37575 6.79166 7.03491 -12.7665 0 0 9.47403 0.863841 1.07786 -28.396 0 0 -1.20037 -1.1015 1.60458 -28.7929 2.84217e-014 2.84217e-014 -6.15441 -1.21208 2.3703 9.58901 -1.42109e-014 0 3.18444 5.99158 0.64631 -3.55271e-015 -41.7092 0 -2.89591 0.0761628 -3.51731 3.55271e-015 -41.5308 0 0.331059 -6.45153 24.2441 0 -6.23286 14.3835 3.97569e-016 -3.97569e-016 -0 -9.58901 0 2.84217e-014 -3.42297 2.77108 -1.64465 -7.10543e-015 -41.7092 0 3.32357 4.94475 -1.21861 -7.10543e-015 -41.5308 0 -0.845154 -9.08857 -15.5326 0 -6.23286 14.3835 0 0 -0 
0 0 0 0 0 -0 -24.0102 86.2519 -189.025 0.784457 -1.40601 8.91146 3.55271e-015 7.86299 -2.84217e-014 0.599618 -8.53169 -0.766687 3.55271e-015 22.6654 2.84217e-014 -0.660596 2.91928 -0.796517 3.55271e-015 22.5723 2.05203 -1.46396 20.5067 -1.0532 7.10543e-015 13.4246 -1.9178 3.28244 0.163205 -0.691306 3.7941 20.1358 -0.319195 8.58251 4.12358 1.3083 12.7665 2.84217e-014 0 -11.1012 2.03295 -6.94107 28.396 -2.84217e-014 2.84217e-014 0.446103 4.07499 -0.699213 28.7929 0 0 4.85732 4.05595 -0.506942 -3.85764 20.1358 -0.319195 -7.37922 6.78759 7.04447 -12.7665 0 2.84217e-014 9.4739 0.870764 1.07786 -28.396 0 0 -1.19987 -1.11762 1.6073 -28.7929 0 0 -6.15523 -1.22862 2.37632 9.58901 0 -2.84217e-014 3.1828 5.99124 0.646309 0 -41.7092 0 -2.89586 0.0761602 -3.5491 -1.77636e-015 -41.5308 -2.84217e-014 0.352475 -6.46042 24.2704 1.42109e-014 -6.23286 14.3835 -1.98785e-016 -1.98785e-016 -6.36111e-015 -9.58901 1.42109e-014 0 -3.42357 2.76976 -1.63304 0 -41.7092 0 3.32539 4.94218 -1.24039 7.10543e-015 -41.5308 0 -0.863147 -9.08003 -15.5173 0 -6.23286 14.3835 -9.93923e-017 7.95139e-016 -0 
0 0 0 0 0 -0 -24.0046 86.2519 -189.025 0.782915 -1.40601 8.91146 3.55271e-015 7.86299 0 0.599654 -8.52903 -0.766682 3.55271e-015 22.6654 0 -0.653389 2.9147 -0.796514 -7.10543e-015 22.5723 2.05203 -1.46358 20.4886 -1.06013 0 13.4246 -1.9178 3.29502 0.193492 -0.6973 3.7941 20.1358 -0.319195 8.58074 4.12359 1.3053 12.7665 -2.84217e-014 0 -11.1031 2.0426 -6.95101 28.396 2.84217e-014 2.84217e-014 0.446327 4.07504 -0.702342 28.7929 0 0 4.89138 4.05547 -0.523954 -3.85764 20.1358 -0.319195 -7.38104 6.77679 7.04727 -12.7665 2.84217e-014 -2.84217e-014 9.47379 0.876336 1.07786 -28.396 2.84217e-014 -2.84217e-014 -1.20899 -1.12708 1.6153 -28.7929 -2.84217e-014 0 -6.14119 -1.23603 2.34718 9.58901 0 0 3.18116 5.99091 0.646309 0 -41.7092 0 -2.89587 0.0761606 -3.54428 -3.55271e-015 -41.5308 2.84217e-014 0.351031 -6.45539 24.2609 0 -6.23286 14.3835 -1.98785e-016 1.98785e-016 1.27222e-014 -9.58901 0 0 -3.42312 2.76427 -1.64562 -3.55271e-015 -41.7092 0 3.32506 4.95416 -1.23354 3.55271e-015 -41.5308 0 -0.850513 -9.09359 -15.5161 1.42109e-014 -6.23286 14.3835 -9.93923e-017 3.97569e-016 -0 
0 0 0 0 0 -0 -23.9988 86.2519 -189.025 0.781641 -1.40601 8.91146 3.55271e-015 7.86299 0 0.599359 -8.52153 -0.769341 0 22.6654 0 -0.642859 2.90459 -0.796507 3.55271e-015 22.5723 2.05203 -1.45266 20.4857 -1.06497 0 13.4246 -1.9178 3.28743 0.212737 -0.70352 3.7941 20.1358 -0.319195 8.5706 4.12358 1.3073 12.7665 0 2.84217e-014 -11.1055 2.05047 -6.969 28.396 0 0 0.446239 4.06449 -0.702933 28.7929 -2.84217e-014 -2.84217e-014 4.91244 4.04476 -0.525409 -3.85764 20.1358 -0.319195 -7.38351 6.77217 7.05433 -12.7665 0 0 9.47213 0.875754 1.07786 -28.396 -5.68434e-014 -2.84217e-014 -1.21313 -1.13435 1.61195 -28.7929 0 -2.84217e-014 -6.12178 -1.2435 2.35987 9.58901 0 0 3.17963 5.99058 0.646308 0 -41.7092 0 -2.90101 0.0761615 -3.53399 3.55271e-015 -41.5308 0 0.337853 -6.45594 24.2557 0 -6.23286 14.3835 -1.98785e-016 0 6.36111e-015 -9.58901 0 2.84217e-014 -3.42384 2.76195 -1.63217 -3.55271e-015 -41.7092 0 3.32511 4.96121 -1.23239 1.42109e-014 -41.5308 -2.84217e-014 -0.851321 -9.0891 -15.5422 0 -6.23286 14.3835 -9.93923e-017 3.97569e-016 -0 
0 0 0 0 0 -0 -23.9923 86.2519 -189.025 0.780517 -1.40601 8.91146 3.55271e-015 7.86299 -2.84217e-014 0.594383 -8.51426 -0.772072 0 22.6654 0 -0.642908 2.89744 -0.796502 3.55271e-015 22.5723 2.05203 -1.43592 20.4753 -1.07293 0 13.4246 -1.9178 3.27993 0.243769 -0.712892 3.7941 20.1358 -0.319195 8.56567 4.1236 1.29474 12.7665 -2.84217e-014 -2.84217e-014 -11.1072 2.06462 -6.96836 28.396 -2.84217e-014 0 0.44671 4.0625 -0.709911 28.7929 2.84217e-014 -2.84217e-014 4.94203 4.04256 -0.52687 -3.85764 20.1358 -0.319195 -7.38428 6.77616 7.06613 -12.7665 0 2.84217e-014 9.4703 0.893064 1.06679 -28.396 0 0 -1.21598 -1.17336 1.62089 -28.7929 0 0 -6.11952 -1.28114 2.33709 9.58901 0 -2.84217e-014 3.178 5.99026 0.646308 -3.55271e-015 -41.7092 0 -2.89077 0.076161 -3.53975 3.55271e-015 -41.5308 0 0.33049 -6.45771 24.2542 0 -6.23286 14.3835 3.97569e-016 -3.97569e-016 -0 -9.58901 0 0 -3.42623 2.75994 -1.62332 -3.55271e-015 -41.7092 2.84217e-014 3.32537 4.97326 -1.23246 3.55271e-015 -41.5308 0 -0.874853 -9.08971 -15.5404 0 -6.23286 14.3835 0 7.95139e-016 -0 
0 0 0 0 0 -0 -23.9892 86.2519 -189.025 0.779425 -1.40601 8.91146 0 7.86299 0 0.591571 -8.50795 -0.774779 0 22.6654 2.84217e-014 -0.634962 2.89304 -0.799463 0 22.5723 2.05203 -1.40639 20.4571 -1.07829 -3.55271e-015 13.4246 -1.9178 3.25665 0.271053 -0.72113 3.7941 20.1358 -0.319195 8.56583 4.1236 1.2988 12.7665 0 2.84217e-014 -11.1087 2.06298 -6.98172 28.396 0 -2.84217e-014 0.44703 4.05778 -0.715262 28.7929 0 2.84217e-014 4.94569 4.03463 -0.528161 -3.85764 20.1358 -0.319195 -7.384 6.77884 7.0629 -12.7665 2.84217e-014 -2.84217e-014 9.47098 0.874064 1.0815 -28.396 0 0 -1.22168 -1.18214 1.62194 -28.7929 0 0 -6.10026 -1.28852 2.32042 9.58901 -1.42109e-014 0 3.17778 5.98996 0.63378 -3.55271e-015 -41.7092 0 -2.90331 0.079113 -3.5148 -3.55271e-015 -41.5308 0 0.360277 -6.46054 24.2543 1.42109e-014 -6.23286 14.3835 -0 -1.98785e-016 -0 -9.58901 -1.42109e-014 2.84217e-014 -3.42867 2.75813 -1.61352 0 -41.7092 -2.84217e-014 3.32234 4.97452 -1.23291 7.10543e-015 -41.5308 0 -0.864073 -9.09179 -15.5535 0 -6.23286 14.3835 -1.10348e-032 3.97569e-016 1.59028e-015 
0 0 0 0 0 -0 -23.9856 86.2519 -189.025 0.778337 -1.40659 8.91146 -7.10543e-015 7.86299 0 0.583337 -8.5002 -0.776873 0 22.6654 0 -0.621346 2.88508 -0.802421 0 22.5723 2.05203 -1.41268 20.4393 -1.07601 3.55271e-015 13.4246 -1.9178 3.27296 0.310141 -0.717613 3.7941 20.1358 -0.319195 8.54902 4.1236 1.29966 12.7665 0 -2.84217e-014 -11.0975 2.06497 -6.99954 28.396 -2.84217e-014 0 0.44696 4.04865 -0.715878 28.7929 0 2.84217e-014 4.98247 4.02901 -0.516485 -3.85764 20.1358 -0.319195 -7.38346 6.76496 7.07414 -12.7665 0 2.84217e-014 9.48314 0.897993 1.06901 -28.396 0 2.84217e-014 -1.23444 -1.18526 1.63398 -28.7929 0 2.84217e-014 -6.07852 -1.28839 2.30425 9.58901 1.42109e-014 0 3.17649 5.98962 0.639305 0 -41.7092 2.84217e-014 -2.90144 0.085652 -3.54524 0 -41.5308 0 0.356852 -6.46985 24.2595 0 -6.23286 14.3835 -1.98785e-016 0 -0 -9.58901 1.42109e-014 2.84217e-014 -3.42992 2.75639 -1.60966 -3.55271e-015 -41.7092 0 3.32242 4.98163 -1.25761 3.55271e-015 -41.5308 0 -0.859237 -9.10173 -15.5397 0 -6.23286 14.3835 -1.10348e-032 3.97569e-016 1.59028e-015 
